<svg width="256" height="256" viewBox="0 0 256 256" fill="none" xmlns="http://www.w3.org/2000/svg">
<path d="M64 64H95.4403C112.467 64 126.269 77.8615 126.269 94.8879C126.269 112.187 112.186 126.27 94.8875 126.27C77.8611 126.27 64 112.468 64 95.4412V64Z" fill="black"/>
<path d="M191.999 192H160.559C143.532 192 129.73 178.139 129.73 161.112C129.73 143.813 143.813 129.73 161.112 129.73C178.138 129.73 191.999 143.532 191.999 160.559V192Z" fill="black"/>
<path d="M64 191.999L64 160.559C64 143.532 77.8615 129.73 94.8879 129.73C112.187 129.73 126.27 143.813 126.27 161.112C126.27 178.138 112.468 191.999 95.4412 191.999H64Z" fill="black"/>
<path d="M192 64V95.4403C192 112.467 178.139 126.269 161.112 126.269C143.813 126.269 129.73 112.186 129.73 94.8875C129.73 77.861 143.532 64 160.559 64L192 64Z" fill="black"/>
</svg>
